<?xml version="1.0" encoding="utf-8"?>
<!-- Generator: Adobe Illustrator 22.0.1, SVG Export Plug-In . SVG Version: 6.00 Build 0)  -->
<svg version="1.1" xmlns="http://www.w3.org/2000/svg" xmlns:xlink="http://www.w3.org/1999/xlink" x="0px" y="0px"
	 viewBox="0 0 847.6 864" style="enable-background:new 0 0 847.6 864;" xml:space="preserve">
<style type="text/css">
	.st0{display:none;fill:#364003;}
	.st1{fill:#38411A;}
	.st2{display:none;fill:none;stroke:#000000;stroke-width:4;stroke-linecap:round;stroke-linejoin:round;stroke-miterlimit:10;}
	.st3{fill:#FFFFFF;}
	.st4{fill:none;stroke:#364003;stroke-width:2.534;stroke-linecap:round;stroke-linejoin:round;stroke-miterlimit:10;}
	.st5{fill:none;stroke:#38411A;stroke-width:2.534;stroke-miterlimit:10;}
	.st6{fill:#364003;}
	.st7{fill:none;stroke:#364003;stroke-width:1.5253;stroke-linecap:round;stroke-linejoin:round;stroke-miterlimit:10;}
	.st8{fill:#364003;stroke:#364003;stroke-miterlimit:10;}
	.st9{fill:none;stroke:#38411A;stroke-width:2.534;stroke-linecap:round;stroke-linejoin:round;stroke-miterlimit:10;}
	.st10{fill:#6A8000;}
</style>
<g id="Background">
	<rect x="-21" y="-21.2" class="st0" width="886.5" height="905"/>
	<circle class="st1" cx="423.8" cy="431.3" r="362.5"/>
</g>
<g id="Unicorn">
	<path class="st2" d="M400.6,764.5c0,0,7.5-0.9,15.7-5.4c8.6-4.7,13.6-5,24.1-0.6c8,3.4,14.5,5,14.5,5"/>
	<path class="st2" d="M545.9,340.9c0,0-12.6-39.1-45.1-38.9c-35.4,0.2-34.3,33.2,0,30.3c17.8-1.5,41.4-13.3,41.9-31.3
		c0.5-17.9-19.2-36.2-41.9-36c-35.4,0.2-34.3,33.2,0,30.3c23.1-1.9,42.4-17.2,45.1-38.6"/>
	<path class="st3" d="M348.9,589.5c0,0-9,8.4-27.4,9.6l-0.6-4.1c0,0-10.3,2.2-22-2.5c-11.7-4.7-17.6-12.4-19.7-17.8
		c0,0-6.6,6.4-6,18.3c0.6,11.8,7.6,23.3,10.7,26.3c3,3,8,10,31.1,16.3l-7.1,3.5l20.7,20.1c0,0,15.6-6.1,19.4-19.7l1.8-0.1
		c0,0,1.7,8.7,8,13.1c6.2,4.4,24.9,6.7,35.5,1.1c3.8-3,6.8-7,6.8-7s10.2,3.9,17.4,4.3c7.2,0.4,24.3,0.8,39.1-4.3
		c0,0,1.6,4.5,5.9,6.5c4.3,2.1,9.8,4.7,18.1,4.4c8.3-0.3,18.2-2.3,20.4-6.8c2.3-4.5,4.8-4.7,5.8-11.4c0,0.2,2.9,0,2.9,0
		s1.9,7,5.3,10.2c3.4,3.2,13.6,9.6,13.6,9.6l20.3-19.7l-6.8-3.9c0,0,18.8-6.3,25-10.8c0,0,29.1-21.8,10.9-50c0,0-8.5,18.6-26.3,19.7
		l-15.5,1.2l-0.6,4c0,0-20.9-1.7-28.2-10.6l-7.6-38l-7.5-22.9l1-1.8c0,0,19.5-23.6,22.1-29.2c0,0,14.9-25.7,18.6-39.1
		s8.2-25.1,6.3-46.1s-7.9-37.2-7.9-37.2l-6.9-14.6c0,0,5.5-2.2,10.9-8c5.4-5.8,10.8-20,11.4-26.1c0.6-6.1,0.6-30.5,0.6-30.5
		s-26.4,5.5-34.7,9.3c-8.3,3.8-18.2,7.9-24.9,18.7c0,0-18.5-9.9-26.2-10.8c-7.7-0.8-34.2-9-72.1,3.4c-3.6,1.4-18,8.4-18,8.4
		l-7.7-9.7c0,0-13.8-10.3-23.2-12.3l-28-7.9c0,0-1.4,11-1,21.2c0.4,10.3,4.5,23.7,4.5,23.7s3.5,12.9,17.1,20.2
		c0,0-9.5,14.9-12.7,27.8s-6.1,28.5-5.4,39.4c0.6,10.8,3.1,27.7,6.9,37.1c3.8,9.6,10.5,23.7,15.8,31.5c0,0,20.3,28.5,26.1,32
		c0,0-8.6,24.2-10.9,36.6C351.2,576.6,348.9,589.5,348.9,589.5z"/>
	<path class="st4" d="M462,312.6c0,0,78.1,15.1,78.1,108.6c0,65.9-68.7,142.9-109.1,142.9c-40.3,0-115.4-69.1-115.3-137.9
		c0.1-90.6,78.2-111.4,78.2-111.4S425.2,304.1,462,312.6z"/>
	<path class="st5" d="M337.5,495.4c0,0,48.6,68.7,93.5,68.7c26.1,0,63.9-32.1,87.5-72.6C518.5,491.6,435.8,444.4,337.5,495.4z"/>
	<path class="st3" d="M410.2,214.3c0,0,14.1-18.5,31.3-0.6V344h-31.3V214.3z"/>
	<g>
		<path class="st6" d="M399.6,348.4c-2.3,2.2-4,5.2-5.3,8.2c-1.3,3-2.1,6.2-2.6,9.5c-0.5,3.4-1.8,6.8-3.9,9.7
			c-1.1,1.4-2.4,2.7-3.9,3.7c-1.5,1-3.1,1.8-5,2.2l0,0c-0.7,0.1-1.3-0.3-1.5-1c-0.1-0.3,0-0.6,0.1-0.8l0-0.1
			c0.8-1.5,1.5-3.4,1.8-5.2c0.3-1.8,0.4-3.7,0.2-5.5c-0.1-0.9-0.3-1.9-0.4-3c-0.1-1-0.2-2.1-0.2-3.1c0-1.1,0.1-2.1,0.2-3.2
			c0.1-0.5,0.2-1.1,0.3-1.6c0.1-0.5,0.3-1,0.6-1.7l2.1,1.4c-2.6,3.1-5.1,6.4-7.3,9.8c-2.2,3.4-4.3,6.9-5.8,10.6
			c-0.4,0.9-0.7,1.8-1,2.8c-0.3,1-0.6,2-1,3c-0.7,2-1.4,3.9-2.3,5.9c-1.7,3.9-4.1,7.5-6.9,10.7c-0.5,0.5-1.3,0.6-1.8,0.1
			c-0.3-0.3-0.5-0.7-0.4-1.1l0,0c0.2-1.8,0.3-3.6,0.4-5.5c0-1.8-0.1-3.7-0.3-5.5c-0.2-1.8-0.6-3.6-1.2-5.2c-0.6-1.7-1.4-3.2-2.5-4.5
			c-0.4-0.5-0.4-1.3,0.1-1.7c0.1-0.1,0.2-0.1,0.3-0.2l0.5-0.2c0.8-0.3,1.6,1.7,1.3,1.4l0,0.1l0,0.1l0,0l0,0.1l-0.1,0.2l-0.1,0.3
			l-0.2,0.5l-0.4,0.9c-0.3,0.6-0.6,1.1-0.9,1.7c-0.6,1.1-1.3,2.2-2,3.2c-1.4,2.1-3,4.1-4.7,6c-3.4,3.8-7.3,7.1-11.8,9.7
			c-2.2,1.3-4.4,2.3-6.4,3.7c-2,1.3-3.8,2.9-5.4,4.7c-1.6,1.8-2.9,3.8-3.8,5.9c-0.4,1.1-0.9,2.2-1.1,3.3c-0.3,1.1-0.5,2.3-0.5,3.3
			l0,0.1c0,0.7-0.6,1.3-1.3,1.3c-0.7,0-1.3-0.6-1.3-1.3c0-1.5,0.2-2.7,0.5-4c0.3-1.3,0.8-2.5,1.3-3.7c1-2.4,2.5-4.6,4.2-6.6
			c1.7-1.9,3.7-3.7,5.8-5.1c0.5-0.3,1.1-0.7,1.6-1.1l1.7-0.9c0.6-0.3,1.1-0.6,1.6-0.9c0.5-0.3,1.1-0.6,1.6-0.9
			c4.2-2.4,7.9-5.6,11.2-9.2c1.6-1.8,3.1-3.7,4.5-5.7c0.7-1,1.3-2,1.9-3.1c0.3-0.5,0.6-1.1,0.8-1.6l0.4-0.8l0.2-0.4l0.1-0.2l0-0.1
			c0,0,0,0,0,0l0,0.1l0,0.1c-0.3-0.4,0.4,1.7,1.2,1.3l1-2.1c1.4,1.6,2.3,3.4,3,5.3c0.7,1.9,1,3.8,1.3,5.8c0.3,1.9,0.3,3.9,0.3,5.8
			c0,1.9-0.1,3.8-0.4,5.8l-2.2-1c2.7-3,4.9-6.4,6.5-10.1c0.8-1.8,1.5-3.7,2.2-5.7c0.3-1,0.6-1.9,0.9-2.9c0.3-1,0.7-2,1.1-3
			c1.6-4,3.8-7.6,6-11.1c2.3-3.5,4.8-6.8,7.5-10c0.4-0.5,1.2-0.6,1.8-0.2c0.4,0.4,0.6,1,0.3,1.5l0,0.1c-0.1,0.3-0.3,0.8-0.4,1.2
			c-0.1,0.4-0.2,0.9-0.3,1.3c-0.1,0.9-0.2,1.8-0.2,2.8c0,0.9,0,1.9,0.2,2.8c0.1,1,0.3,1.8,0.4,2.9c0.3,2.1,0.2,4.3-0.2,6.3
			c-0.4,2.1-1,4-2.1,6l-1.3-1.9l0,0c0.6-0.1,1.4-0.4,2.1-0.6c0.7-0.3,1.4-0.6,2.1-1.1c1.3-0.8,2.5-1.8,3.5-3c2-2.4,3.3-5.5,3.9-8.6
			c0.7-3.4,1.7-6.6,3.1-9.7c1.5-3.1,3.3-6,5.9-8.4c0.2-0.2,0.5-0.2,0.7,0C399.9,347.9,399.9,348.2,399.6,348.4L399.6,348.4z"/>
	</g>
	<g>
		<path class="st6" d="M456.8,347.6c1.3,1.2,2.4,2.6,3.3,4c1,1.4,1.8,2.9,2.5,4.5c1.4,3.1,2.4,6.4,3,9.7c0.6,3.2,1.9,6.2,4,8.7
			c1,1.2,2.2,2.2,3.6,3.1c0.7,0.4,1.4,0.7,2.1,1c0.7,0.3,1.5,0.5,2.1,0.6l0,0l-1.3,1.9c-1.1-2-1.7-3.9-2.1-6
			c-0.4-2.1-0.5-4.2-0.2-6.3c0.1-1.1,0.3-2,0.4-2.9c0.1-0.9,0.2-1.9,0.2-2.8c0-0.9-0.1-1.9-0.2-2.8c-0.1-0.5-0.2-0.9-0.3-1.3
			c-0.1-0.4-0.3-0.9-0.4-1.2l0-0.1c-0.3-0.6,0-1.4,0.6-1.7c0.5-0.2,1.1-0.1,1.5,0.3c2.7,3.2,5.2,6.6,7.5,10c2.3,3.5,4.4,7.1,6,11.1
			c0.4,1,0.7,2,1.1,3c0.3,1,0.6,1.9,0.9,2.9c0.7,1.9,1.4,3.8,2.2,5.7c1.6,3.7,3.8,7,6.5,10.1l-2.2,1c-0.3-2-0.4-3.9-0.4-5.8
			c0-1.9,0.1-3.9,0.3-5.8c0.3-1.9,0.6-3.9,1.3-5.8c0.7-1.9,1.6-3.7,3-5.3l1,2.1c0.8,0.4,1.6-1.7,1.2-1.3l0-0.1l0-0.1c0,0,0,0,0,0
			l0,0.1l0.1,0.2l0.2,0.4l0.4,0.8c0.3,0.5,0.6,1.1,0.8,1.6c0.6,1,1.2,2.1,1.9,3.1c1.4,2,2.8,3.9,4.5,5.7c3.2,3.6,7,6.7,11.2,9.2
			c0.5,0.3,1,0.6,1.6,0.9c0.5,0.3,1.1,0.6,1.6,0.9l1.7,0.9c0.6,0.3,1.1,0.7,1.6,1.1c2.2,1.4,4.1,3.1,5.8,5.1
			c1.7,1.9,3.2,4.2,4.2,6.6c0.5,1.2,1,2.4,1.3,3.7c0.3,1.3,0.5,2.5,0.5,4c0,0.7-0.6,1.3-1.3,1.3c-0.7,0-1.3-0.6-1.3-1.3l0-0.1
			c0-1-0.2-2.2-0.5-3.3c-0.3-1.1-0.7-2.2-1.1-3.3c-0.9-2.2-2.2-4.1-3.8-5.9c-1.6-1.8-3.4-3.4-5.4-4.7c-1.9-1.4-4.1-2.3-6.4-3.7
			c-4.4-2.6-8.4-5.9-11.8-9.7c-1.7-1.9-3.3-3.9-4.7-6c-0.7-1.1-1.4-2.1-2-3.2c-0.3-0.6-0.6-1.1-0.9-1.7l-0.4-0.9l-0.2-0.5l-0.1-0.3
			l-0.1-0.2l0-0.1l0,0l0-0.1l0-0.1c-0.3,0.4,0.4-1.7,1.3-1.4l0.5,0.2c0.6,0.3,0.9,1,0.7,1.6c0,0.1-0.1,0.2-0.2,0.3
			c-1.1,1.3-1.9,2.8-2.5,4.5c-0.6,1.7-0.9,3.4-1.2,5.2c-0.2,1.8-0.3,3.6-0.3,5.5c0,1.8,0.1,3.7,0.4,5.5l0,0c0.1,0.7-0.4,1.3-1.1,1.4
			c-0.4,0.1-0.8-0.1-1.1-0.4c-2.8-3.1-5.2-6.8-6.9-10.7c-0.9-1.9-1.6-3.9-2.3-5.9c-0.3-1-0.7-2-1-3c-0.3-1-0.6-1.9-1-2.8
			c-1.5-3.7-3.6-7.2-5.8-10.6c-2.3-3.4-4.7-6.7-7.3-9.8l2.1-1.4c0.3,0.6,0.4,1.1,0.6,1.7c0.1,0.5,0.2,1.1,0.3,1.6
			c0.2,1.1,0.2,2.1,0.2,3.2c0,1.1-0.1,2.1-0.2,3.1c-0.1,1-0.3,2.1-0.4,3c-0.2,1.8-0.1,3.7,0.2,5.5c0.4,1.8,1,3.7,1.8,5.2l0,0.1
			c0.3,0.6,0.1,1.4-0.5,1.7c-0.3,0.1-0.6,0.2-0.8,0.1l0,0c-1.9-0.5-3.5-1.3-5-2.3c-1.5-1-2.8-2.3-3.9-3.7c-2.1-2.8-3.4-6.2-3.9-9.6
			c-0.5-3.3-1.4-6.5-2.7-9.5c-0.7-1.5-1.4-3-2.3-4.4c-0.9-1.4-1.9-2.7-3.1-3.7l0,0c-0.2-0.2-0.2-0.5,0-0.8
			C456.2,347.5,456.5,347.4,456.8,347.6z"/>
	</g>
	<path class="st4" d="M488.5,323.4c0,0,7.3-12.3,24.9-18.7s35-9.3,35-9.3s1,26-1.9,35.3c-2.9,9.3-6.3,21.9-21.3,29.2"/>
	<path class="st7" d="M498.2,329.5c0,0,4.4-7.4,15-11.3c10.6-3.9,21-5.6,21-5.6s0.6,15.6-1.2,21.2c-1.7,5.6-3.8,13.2-12.8,17.6"/>
	<path class="st4" d="M371.8,324.2c0,0-6.9-12.5-24.4-19.4c-17.5-6.9-34.7-10.2-34.7-10.2s-1.7,25.9,1,35.3s5.7,22.1,20.5,29.8"/>
	<path class="st7" d="M362,330c0,0-4.2-7.5-14.7-11.7c-10.5-4.1-20.9-6.2-20.9-6.2s-1,15.6,0.6,21.3c1.6,5.6,3.4,13.3,12.3,17.9"/>
	<ellipse class="st8" cx="487.6" cy="434.9" rx="10.6" ry="22.4"/>
	<ellipse class="st8" cx="368.1" cy="434.9" rx="10.6" ry="22.4"/>
	<path class="st1" d="M449.7,533.2c0,0,9.5,0.1,17.9-5.6c4.4-3,10.4-8.8,5.5-14.1c-3.9-4.2-11.8,2.3-14.3,8
		C458.7,521.5,456.3,527.8,449.7,533.2z"/>
	<path class="st1" d="M408.5,533.2c0,0-9.5,0.1-17.9-5.6c-4.4-3-10.4-8.8-5.5-14.1c3.9-4.2,11.8,2.3,14.3,8
		C399.5,521.5,401.9,527.8,408.5,533.2z"/>
	<path class="st4" d="M364.5,527.5c0,0-21.5,50.4-15.4,108.2c2.1,14.2,9.2,21.1,27,21.1c15,0,25.3-3.9,26.9-21.9
		c1.1-12.1,1.2-40.6,0-51.3"/>
	<path class="st4" d="M491.9,527.5c0,0,21.5,50.4,15.4,108.2c-2.1,14.2-9.2,21.1-27,21.1c-15,0-25.3-3.9-26.9-21.9
		c-1.1-12.1-1.2-40.6,0-51.3"/>
	<path class="st4" d="M403.6,617.8c-1.4-0.6-8.8-3.6-14.8-8.9c-6.6-5.9-14.3-7.6-25.6,0c-11.3,7.6-15.1,12.3-15.1,12.3"/>
	<path class="st4" d="M452.9,617.8c1.5-0.6,8.8-3.6,14.7-8.9c6.6-5.9,14.3-7.6,25.6,0c11.3,7.6,15.1,12.3,15.1,12.3"/>
	<path class="st4" d="M355.5,650.5c0,0,6.1,0.9,10.9-0.8c4.4-1.6,9.6-1.8,9.6-1.8s6.4-0.2,11.2,1.4c4.8,1.7,9.6,1.4,11-0.1"/>
	<path class="st9" d="M500.9,650.5c0,0-6.1,0.9-10.9-0.8c-4.4-1.6-9.6-1.8-9.6-1.8s-6.4-0.2-11.2,1.4c-4.8,1.7-9.6,1.4-11-0.1"/>
	<g>
		<path class="st1" d="M462.3,631.4c2.9-0.8,5.6-1.9,8.2-3.3c1.2-0.7,2.6-1.5,4.1-2.2c1.5-0.7,3.1-1.1,4.8-1.2
			c3.4-0.1,6.5,1.2,9.2,2.5c2.7,1.3,5.5,2.4,8.3,3.6l0,0c0.2,0.1,0.3,0.3,0.2,0.5c-0.1,0.2-0.2,0.3-0.4,0.2c-3.1-0.4-6-1.3-8.9-2.3
			c-2.8-1.1-5.6-2.1-8.3-2c-1.3,0-2.7,0.4-4,0.9c-1.3,0.5-2.6,1.2-4.1,1.9c-2.9,1.2-5.9,2.1-9,2.2c-0.2,0-0.4-0.2-0.5-0.4
			C462,631.7,462.1,631.5,462.3,631.4L462.3,631.4z"/>
	</g>
	<g>
		<path class="st1" d="M394,632.3c-3.1-0.1-6.2-1-9-2.2c-1.5-0.6-2.7-1.4-4.1-1.9c-1.3-0.5-2.6-0.8-4-0.9c-2.7-0.1-5.4,0.9-8.3,2
			c-2.9,1.1-5.8,1.9-8.9,2.3c-0.2,0-0.4-0.1-0.4-0.3c0-0.2,0.1-0.3,0.2-0.4l0,0c2.8-1.1,5.6-2.3,8.3-3.6c2.7-1.3,5.7-2.6,9.2-2.5
			c1.7,0.1,3.3,0.5,4.8,1.2c1.5,0.6,2.8,1.5,4.1,2.2c2.6,1.4,5.4,2.5,8.2,3.3l0,0c0.2,0.1,0.4,0.3,0.3,0.5
			C394.3,632.2,394.2,632.3,394,632.3z"/>
	</g>
	<path class="st4" d="M399.9,646.4c0,0,22.8,10.7,56.5,0"/>
	<path class="st5" d="M536.1,595c0,0,30.6,4.1,41.7-20.4c0,0,14.3,14-1.2,40c-10.9,17.3-35.9,20.2-35.9,20.2l8.5,4.1L528.5,659
		c0,0-16.3-7-19.4-19.7C509.1,639.6,531.4,631.6,536.1,595z"/>
	<path class="st5" d="M320.9,595c0,0-30.6,4.1-41.7-20.4c0,0-14.3,14,1.2,40c10.9,17.3,35.9,20.2,35.9,20.2l-8.5,4.1l20.7,20.1
		c0,0,16.3-7,19.4-19.7C348,639.6,325.7,631.6,320.9,595z"/>
	<path class="st4" d="M349.5,588.9c0,0-8.4,8.7-27.9,10.2"/>
	<path class="st4" d="M507.2,588.9c0,0,8.4,8.7,27.9,10.2"/>
	<path class="st6" d="M441.7,319.8c0,0,2.3,4-1.4,10.7c-6.1,11.3-18.6,12.2-18.6,12.2c-4.7,0.2-7.1-0.5-9.3-2
		c-2.2-1.5-3.1-3.6-3.1-5c0-1.4,0.6-1.7,0.6-1.7v-4.8c0,0-3.8,1.7-3.8,6.8c0,0,0.2,6.1,6.7,8.9c6.3,2.7,13.5,0.6,16.8-0.8
		c2.5-1.2,7.3-3.9,11.5-8.8c4-4.6,7.8-15.4,0.6-19.8"/>
	<path class="st6" d="M441.7,296.7c0,0,2.3,4-1.4,10.7c-6.1,11.3-18.6,12.2-18.6,12.2c-4.7,0.2-7.1-0.5-9.3-2
		c-2.2-1.5-3.1-3.6-3.1-5c0-1.4,0.6-1.7,0.6-1.7v-4.8c0,0-3.8,1.7-3.8,6.8c0,0,0.2,6.1,6.7,8.9c6.3,2.7,13.5,0.6,16.8-0.8
		c2.5-1.2,7.3-3.9,11.5-8.8c4-4.6,7.8-15.4,0.6-19.8"/>
	<path class="st6" d="M441.7,273.2c0,0,2.3,4-1.4,10.7c-6.1,11.3-18.6,12.2-18.6,12.2c-4.7,0.2-7.1-0.5-9.3-2
		c-2.2-1.5-3.1-3.6-3.1-5c0-1.4,0.6-1.7,0.6-1.7v-4.8c0,0-3.8,1.7-3.8,6.8c0,0,0.2,6.1,6.7,8.9c6.3,2.7,13.5,0.6,16.8-0.8
		c2.5-1.2,7.3-3.9,11.5-8.8c4-4.6,7.8-15.4,0.6-19.8"/>
	<path class="st6" d="M441.7,249.6c0,0,2.3,4-1.4,10.7c-6.1,11.3-18.6,12.2-18.6,12.2c-4.7,0.2-7.1-0.5-9.3-2
		c-2.2-1.5-3.1-3.6-3.1-5c0-1.4,0.6-1.7,0.6-1.7v-4.8c0,0-3.8,1.7-3.8,6.8c0,0,0.2,6.1,6.7,8.9c6.3,2.7,13.5,0.6,16.8-0.8
		c2.5-1.2,7.3-3.9,11.5-8.8c4-4.6,7.8-15.4,0.6-19.8"/>
	<path class="st6" d="M441.7,226.6c0,0,2.3,4-1.4,10.7c-6.1,11.3-18.6,12.2-18.6,12.2c-4.7,0.2-7.1-0.5-9.3-2
		c-2.2-1.5-3.1-3.6-3.1-5s0.6-1.7,0.6-1.7v-4.8c0,0-3.8,1.7-3.8,6.8c0,0,0.2,6.1,6.7,8.9c6.3,2.7,13.5,0.6,16.8-0.8
		c2.5-1.2,7.3-3.9,11.5-8.8c4-4.6,7.8-15.4,0.6-19.8"/>
	<path class="st6" d="M441.7,204.6c0,0,2.3,4-1.4,10.7c-6.1,11.3-18.6,12.2-18.6,12.2c-4.7,0.2-7.1-0.5-9.3-2
		c-2.2-1.5-3.1-3.6-3.1-5s0.6-1.7,0.6-1.7v-4.8c0,0-3.8,1.7-3.8,6.8c0,0,0.2,6.1,6.7,8.9c6.3,2.7,13.5,0.6,16.8-0.8
		c2.5-1.2,7.3-3.9,11.5-8.8c4-4.6,7.8-15.4,0.6-19.8"/>
</g>
<g id="Type">
	<g>
		<g>
			<path class="st3" d="M237.4,641.1l6.7,5l-22.2,29.3c-2.3,3.1-3.2,6.1-2.8,9c0.4,3,1.8,5.4,4.4,7.4c2.6,2,5.4,2.7,8.4,2.3
				c2.9-0.4,5.5-2.1,7.9-5.1l22.2-29.3l6.7,5l-22.8,30c-3.7,4.7-8.1,7.4-13.1,7.9c-5.1,0.7-9.9-0.7-14.5-4.1
				c-4.4-3.4-6.9-7.6-7.7-12.8c-0.9-5.1,0.4-10,4-14.8L237.4,641.1z"/>
			<path class="st3" d="M276.9,670.5l7,3.6l3.7,47.4l0.1,0.1l18.5-36l7.4,3.8l-26,50.7l-7-3.6L277,689l-0.1-0.1l-18.5,36l-7.4-3.8
				L276.9,670.5z"/>
			<path class="st3" d="M325.1,693.2l7.9,2.8l-18.8,53.8l-7.9-2.8L325.1,693.2z"/>
			<path class="st3" d="M331.7,746.6l7.6,2l-2.1,7.9l-7.6-2L331.7,746.6z"/>
			<path class="st3" d="M393.5,749.9c-1.9,5.1-4.7,8.8-8.5,11.1c-3.9,2.3-8.2,3.1-12.9,2.5c-4.3-0.7-7.7-2.3-10.3-4.7
				c-2.7-2.4-4.5-5-5.4-7.8c-0.3-0.9-0.5-1.8-0.8-2.6c-0.2-0.8-0.3-1.9-0.3-3.1c-0.1-2.3,0.3-6.7,1.2-13.2
				c0.9-6.6,1.7-10.9,2.4-13.1c0.7-2.2,1.6-3.9,2.6-5.1c1.7-2.4,4.1-4.5,7.3-6.1c3.2-1.7,6.9-2.2,11.2-1.7c5.3,0.8,9.3,3,12.2,6.6
				c2.9,3.6,4.5,7.9,4.7,12.7l-8.8-1.2c-0.4-2.4-1.3-4.5-2.9-6.3c-1.6-1.8-3.8-2.9-6.4-3.3c-2-0.2-3.7,0-5.2,0.5
				c-1.5,0.6-2.8,1.4-3.9,2.4c-1.2,1.1-2.2,2.5-2.8,4.4c-0.7,2-1.4,5.7-2.1,11.3c-0.8,5.6-1.1,9.3-0.9,11.4c0.1,2,0.6,3.7,1.5,5.1
				c0.7,1.3,1.7,2.4,3.1,3.3c1.3,1,2.9,1.7,4.9,2c4.7,0.6,8.5-1.5,11.5-6.3L393.5,749.9z"/>
			<path class="st3" d="M404.4,709l8.4-0.2l1,48.8l26.9-0.5l0.2,8.1l-35.2,0.7L404.4,709z"/>
			<path class="st3" d="M453.4,755.7l7.8-0.9l0.9,8.1l-7.8,0.9L453.4,755.7z"/>
			<path class="st3" d="M471.2,733.6c-1.4-6.5-2.1-10.9-2.2-13.1c-0.1-2.3,0.1-4.2,0.7-5.7c0.8-2.8,2.4-5.6,4.8-8.2
				c2.4-2.6,5.7-4.4,9.9-5.4c4.3-0.9,8.1-0.6,11.4,0.8c3.3,1.4,5.8,3.3,7.6,5.6c1.2,1.2,2.2,2.8,3,4.9c0.8,2.1,1.9,6.4,3.3,12.9
				c1.4,6.4,2.1,10.7,2.3,13c0.1,2.3-0.1,4.2-0.7,5.8c-0.7,2.8-2.3,5.5-4.7,8.1c-2.4,2.7-5.8,4.5-10,5.5c-4.3,0.8-8,0.5-11.3-0.9
				c-3.3-1.3-5.9-3.2-7.7-5.4c-0.6-0.8-1.1-1.5-1.6-2.2c-0.5-0.7-0.9-1.7-1.4-2.8C473.7,744.2,472.5,739.9,471.2,733.6z
				 M479.3,731.8c1.2,5.5,2.2,9.2,3,11c0.8,1.9,1.8,3.3,3.1,4.3c1.1,1,2.4,1.6,4,2.1c1.6,0.5,3.3,0.6,5.2,0.2c2-0.4,3.6-1.2,4.8-2.4
				c1.2-1,2.1-2.2,2.7-3.5c0.8-1.4,1.2-3.2,1.2-5.2c0-2-0.7-5.8-1.8-11.3c-1.2-5.5-2.2-9.2-3-11.1c-0.8-1.8-1.9-3.2-3.2-4.2
				c-1.1-1-2.4-1.7-3.9-2.2c-1.6-0.4-3.4-0.5-5.3-0.1c-1.9,0.5-3.5,1.2-4.7,2.3c-1.2,1.1-2.2,2.3-2.8,3.6c-0.8,1.4-1.2,3.1-1.1,5.1
				C477.6,722.5,478.2,726.3,479.3,731.8z"/>
			<path class="st3" d="M526.6,741l7.5-2.5l2.5,7.7l-7.5,2.5L526.6,741z"/>
			<path class="st3" d="M556.2,704.6l17.7-8.3l4.9,10.5c2.3,5.2,2.6,10.3,1,15.4c-1.7,5-5.1,8.8-10.2,11.3c-4,1.7-7.7,2.3-11.2,1.6
				c-3.5-0.6-6.4-1.7-8.8-3.6c-0.7-0.6-1.4-1.2-2-1.8c-0.6-0.6-1.3-1.4-2-2.4c-1.3-1.9-3.4-5.8-6.1-11.7c-2.8-6-4.5-10.1-5.1-12.3
				c-0.6-2.2-0.8-4.1-0.6-5.7c0.1-2.9,1-6,2.8-9.1c1.7-3.1,4.6-5.6,8.5-7.5c4.8-2.2,9.5-2.6,13.9-1.1c4.4,1.5,8,4.2,10.8,8.2l-8,3.8
				c-1.6-1.8-3.6-3-5.9-3.8c-2.3-0.6-4.7-0.4-7.2,0.7c-1.8,0.9-3.1,2-4.1,3.3c-1,1.3-1.6,2.7-1.9,4.1c-0.5,1.6-0.4,3.3,0.1,5.2
				c0.5,2,1.9,5.6,4.3,10.6c2.4,5.1,4.2,8.4,5.4,10.1c1.2,1.6,2.5,2.8,4,3.4c1.3,0.7,2.8,1.1,4.4,1.1c1.6,0.2,3.4-0.2,5.1-1
				c3-1.4,4.9-3.6,5.8-6.6c1-2.9,0.7-6-0.7-9.2l-1.3-2.7l-10.2,4.8L556.2,704.6z"/>
			<path class="st3" d="M597.3,708.8l6.7-4.2l4.3,6.9l-6.7,4.2L597.3,708.8z"/>
			<path class="st3" d="M615,690.6c5.8,0.1,11-1.8,15.7-5.6c5.5-4.6,6.6-9,3.4-13.1c-2.7-3.3-6.1-3.8-10.4-1.3
				c-1.9,1.2-4,2.5-6.3,3.8c-4.2,2.4-8.1,3.3-11.8,2.7c-3.8-0.6-7-2.5-9.7-5.7c-3.2-3.8-4.5-8-4-12.3c0.5-4.3,2.9-8.3,7.2-12
				c5.4-4.2,11.2-6.5,17.5-6.9l0.9,8.4c-5,0.5-9.4,2.2-13.3,5.3c-2,1.6-3.2,3.5-3.7,5.6c-0.5,2.2,0.1,4.4,1.8,6.5
				c1,1.3,2.5,2,4.3,2.3c1.8,0.3,3.9-0.3,6.4-1.6c1.3-0.8,3.1-1.9,5.4-3.3c4.5-2.7,8.6-3.7,12.5-2.9c3.8,0.8,7,2.7,9.6,5.9
				c6.7,8.6,5.3,16.9-4.4,25.1c-6.3,5.2-13.4,7.7-21.2,7.4L615,690.6z"/>
		</g>
	</g>
	<g>
		<path class="st10" d="M142.2,579.6l38.6-19.2c4.2-2.1,6-5.6,4-9.5c-2-3.9-5.9-4.6-10-2.5l-38.6,19.2l-2.7-5.4l37.4-18.7
			c10.7-5.3,16.5-0.5,19.1,4.7c2.6,5.2,3,12.7-7.7,18.1L144.9,585L142.2,579.6z"/>
		<path class="st10" d="M124.5,539l34.8-27.9l-39.7,12.8l-1.8-5.7l53.3-17.2l1.8,5.7l-34,27.6l38.9-12.5l1.8,5.7l-53.3,17.2
			L124.5,539z"/>
		<path class="st10" d="M112.7,495.6l54.8-11.6l1.2,5.9l-54.8,11.6L112.7,495.6z"/>
		<path class="st10" d="M163.6,459.2l0.6,5.3l-54.2,18.6l-0.8-6.7l40.3-12.8l0-0.2l-42.2-2.9l-0.8-6.3L163.6,459.2z"/>
		<path class="st10" d="M106,441.1l-0.4-22.5l5.5-0.1l0.3,16.5l19.5-0.3l-0.2-14.6l5.2-0.1l0.2,14.6l20.2-0.3l-0.3-16.7l5.5-0.1
			l0.4,22.7L106,441.1z"/>
		<path class="st10" d="M107.2,393.2c0.6-6.1,2.2-14.7,14.6-13.5l4.4,0.4c6.1,0.6,10,3.5,11.2,8.7l27.1-6.5l-0.6,6.2l-25.9,5.9
			l-0.6,6.8l25.1,2.3l-0.6,6l-55.8-5.2L107.2,393.2z M132.2,400.7l0.5-5.9c0.4-4.4-1.8-8.3-6.7-8.7l-5.3-0.5
			c-6.9-0.6-8.1,4.6-8.3,7.7l-0.5,5.6L132.2,400.7z"/>
		<path class="st10" d="M128.2,346.5c-1.4-0.3-4-0.7-6.3,0.4c-1.3,0.7-2.8,1.9-3.4,4.8c-0.3,1.4-0.4,3.4,0.8,5.2
			c1.6,2.3,4.1,3,6.2,3.4c1.6,0.3,4.5,0.9,6.9,0c1.8-0.8,3.1-2.4,3.9-3.7l2.9-4.6c1.3-2.1,3.2-4.7,6.1-6c3.1-1.4,6.1-1,9.5-0.3
			l2,0.4c5.4,1.1,9.1,3.5,11,6.1c1.6,2.4,2.3,6.1,1.4,10.5c-1.1,5.4-3.8,8.4-6.6,9.7c-3.6,1.7-8.9,0.6-9.6,0.4l-2-0.4l1.2-5.9
			l1.6,0.3c1.5,0.3,4.1,0.6,6.1-0.3c2.4-1.3,3.1-3.6,3.4-4.9c0.8-3.6-0.3-5.5-1.1-6.5c-1.6-1.9-4.1-2.5-6-2.9l-2.1-0.4
			c-2.1-0.4-4.9-0.8-6.8,0.2c-2.1,0.9-3.4,3-3.9,3.8l-3.4,5.5c-1.5,2.5-3.6,4.8-7.3,5.6c-2.6,0.5-5.3,0-8-0.6l-1.6-0.3
			c-4.4-0.9-7.3-3.3-9-6c-1.8-2.9-1.9-6.2-1.2-9.7c1.6-7.5,7.5-11.5,16.3-9.6l1.9,0.4l-1.2,5.9L128.2,346.5z"/>
		<path class="st10" d="M122.5,317.1l53.5,16.6l-1.8,5.7l-53.5-16.6L122.5,317.1z"/>
		<path class="st10" d="M136.6,279.8l5.1,2.1l-3.9,9.6l46.7,19.1l-2.3,5.6l-46.7-19.1l-3.9,9.5l-5.1-2.1L136.6,279.8z"/>
		<path class="st10" d="M177.6,271.4l20.6,11.4l-2.9,5.2l-20.9-11.6l-33.8-5.4l3.2-5.8l25.3,4.7l0.1-0.2l-17.4-18.9l3.1-5.5
			L177.6,271.4z"/>
		<path class="st10" d="M198.7,207.9c-1.5-1.3-5.8-4-9.6,0.3c-4.2,4.8-0.4,8.8,1.9,10.8l22.7,19.8c1.5,1.3,6.1,4.1,9.7-0.1
			c2.1-2.4,3.6-6.1-1.3-10.4l-1.3-1.2l4-4.6l1.6,1.4c6,5.3,7.6,11.6,1.3,18.8c-7.4,8.4-14.9,3.2-17.3,1.1l-25-21.8
			c-4.8-4.2-6.3-11.3-0.9-17.5c4.6-5.2,10.9-7.4,17.6-1.5l2.7,2.4l-3.8,4.4L198.7,207.9z"/>
		<path class="st10" d="M209.2,180.7l33.2,38l13.3-11.6l3.6,4.2l-17.8,15.6l-36.8-42.2L209.2,180.7z"/>
		<path class="st10" d="M282.1,196l-9.2-8.9l-10.6,6.9l4.6,11.9l-4.9,3.2l-20.5-53.5l4.6-3l40.9,40.2L282.1,196z M250.2,164.3l10,25
			l9.2-6L250.2,164.3z"/>
		<path class="st10" d="M291.5,143.5c-0.6-1.3-1.9-3.6-4.1-4.8c-1.3-0.6-3.2-1-5.8,0.2c-1.3,0.6-2.9,1.7-3.6,3.7
			c-0.9,2.6,0.1,5.1,1,7c0.7,1.5,2,4.1,4.2,5.5c1.7,1,3.8,1,5.3,0.9l5.4-0.5c2.4-0.3,5.7-0.3,8.5,1.2c3,1.6,4.5,4.3,6,7.4l0.9,1.8
			c2.4,5,2.7,9.3,1.8,12.4c-0.9,2.7-3.5,5.5-7.5,7.4c-5,2.4-9,2-11.6,0.6c-3.5-1.9-5.8-6.7-6.1-7.4l-0.9-1.8l5.4-2.6l0.7,1.4
			c0.6,1.4,2,3.7,4,4.7c2.5,1.1,4.8,0.3,6-0.3c3.3-1.6,4.2-3.6,4.5-4.9c0.6-2.4-0.5-4.8-1.3-6.5l-0.9-2c-0.9-2-2.3-4.4-4.3-5.3
			c-2-1.1-4.4-0.9-5.4-0.8l-6.4,0.6c-2.9,0.3-6,0.1-8.9-2.5c-2-1.8-3.2-4.2-4.4-6.7l-0.7-1.5c-1.9-4.1-1.8-7.8-0.6-10.8
			c1.2-3.2,3.8-5.3,7-6.8c6.9-3.3,13.7-1,17.5,7.1l0.8,1.7l-5.4,2.6L291.5,143.5z"/>
		<path class="st10" d="M329.5,129.7c-0.4-1.4-1.4-3.8-3.4-5.3c-1.3-0.8-3.1-1.5-5.8-0.6c-1.4,0.4-3.1,1.3-4.1,3.2
			c-1.2,2.5-0.6,5,0,7.1c0.5,1.6,1.4,4.3,3.4,6c1.5,1.2,3.7,1.5,5.1,1.6l5.4,0.2c2.5,0.1,5.7,0.5,8.2,2.4c2.7,2,3.9,4.8,4.9,8.2
			l0.6,1.9c1.6,5.3,1.4,9.6,0.1,12.6c-1.3,2.6-4.2,5-8.5,6.3c-5.3,1.6-9.2,0.8-11.6-1c-3.2-2.3-4.8-7.5-5.1-8.1l-0.6-1.9l5.7-1.8
			l0.5,1.5c0.5,1.5,1.5,3.9,3.3,5.2c2.3,1.5,4.7,1,6,0.6c3.5-1.1,4.6-2.9,5.1-4.2c0.9-2.3,0.2-4.8-0.4-6.7l-0.6-2.1
			c-0.6-2.1-1.7-4.7-3.5-5.9c-1.8-1.4-4.2-1.5-5.3-1.5l-6.4-0.2c-2.9-0.1-5.9-0.7-8.4-3.7c-1.7-2.1-2.6-4.6-3.4-7.2l-0.5-1.6
			c-1.3-4.3-0.7-8,0.8-10.7c1.7-3,4.5-4.7,7.8-5.8c7.3-2.3,13.7,0.9,16.4,9.5l0.6,1.8l-5.7,1.8L329.5,129.7z"/>
		<path class="st10" d="M371.4,121.3c-0.5-4.1-0.6-8.1,2.7-12c2-2.4,5-3.9,9-4.4c4-0.4,7.3,0.4,9.8,2.3c4,3,4.8,7,5.3,11.1l3.1,27.5
			c0.5,4.1,0.6,8.1-2.7,12c-2,2.4-5,3.9-9,4.4c-4,0.4-7.3-0.4-9.8-2.3c-4-3-4.8-7-5.3-11.1L371.4,121.3z M392,117.7
			c-0.2-2-0.6-4-2.7-5.6c-1.2-1-3.2-1.7-5.5-1.4c-2.4,0.3-4.1,1.3-5.1,2.6c-1.7,2-1.6,4-1.4,6l3.3,30.1c0.2,2,0.6,4,2.7,5.7
			c1.2,0.9,3.2,1.6,5.5,1.3c2.4-0.3,4.1-1.3,5.1-2.5c1.7-2.1,1.6-4.1,1.4-6.1L392,117.7z"/>
		<path class="st10" d="M413.5,103.7l12.2-0.3c10.1-0.3,14,6.2,14.2,13.9l0.1,5c0.2,7.2-4.3,13.8-12.3,14l-7.4,0.2l0.6,23.1l-6,0.2
			L413.5,103.7z M420.2,131.3l5.7-0.2c5.5-0.2,8.2-3.9,8.1-7.8l-0.2-6.6c-0.1-5.1-2.9-8.2-8.5-8.1l-5.8,0.2L420.2,131.3z"/>
		<path class="st10" d="M454.8,104.2l22.4,2.3l-0.6,5.5l-16.4-1.7l-2,19.4l14.5,1.5l-0.5,5.2l-14.5-1.5l-2.1,20.1l16.6,1.7l-0.6,5.5
			l-22.6-2.3L454.8,104.2z"/>
		<path class="st10" d="M497.7,110.2l6.1,44.2l9.3-40.6l5.8,1.3l-12.5,54.6l-5.8-1.3l-6.3-43.4l-9.1,39.8l-5.8-1.3l12.5-54.6
			L497.7,110.2z"/>
		<path class="st10" d="M555.7,184.7c-3.8,2.7-8.5,1.7-11.2,0.5c-3.1-1.5-5.8-3.5-6.6-7.3c-0.8-3.7,0.6-7.6,1.6-9.7l12.9-26.6
			c1.5-3,3.1-6,6.7-7.9c4.6-2.5,9.3-1,11.9,0.3c7.2,3.5,10.3,9.5,6.3,17.8l-1.1,2.3l-5.4-2.6l1.1-2.2c1-2.2,2.6-7.1-3.3-10
			c-5.9-2.9-9.3,2.1-10.8,5.2l-12,24.6c-2.5,5.1-2.3,9.1,2.5,11.5s8.6-0.5,11.3-6l3.9-8.1l-6.4-3.1l2.3-4.7l11.8,5.7L558.3,191
			l-3.1-1.5L555.7,184.7z"/>
		<path class="st10" d="M608,156.4c5,3.5,11.7,9.1,4.6,19.3l-2.5,3.6c-3.5,5.1-8,7-13.1,5.4l-7.7,26.8l-5.1-3.6l7.6-25.4l-5.6-3.9
			l-14.3,20.7l-4.9-3.4l31.9-46L608,156.4z M589.2,174.5l4.9,3.4c3.6,2.5,8.1,2.5,10.9-1.6l3-4.3c4-5.7-0.1-9.3-2.6-11l-4.6-3.2
			L589.2,174.5z"/>
		<path class="st10" d="M623.9,186.1c2.9-3,5.8-5.7,10.9-5.7c3.1,0,6.3,1.3,9.2,4.1c2.9,2.8,4.4,5.8,4.5,8.9c0.3,5-2.2,8.2-5.1,11.2
			l-19.1,20.1c-2.9,3-5.8,5.7-10.9,5.7c-3.1,0-6.3-1.3-9.2-4.1c-2.9-2.8-4.4-5.8-4.5-8.9c-0.3-5,2.2-8.2,5.1-11.2L623.9,186.1z
			 M640,199.6c1.4-1.5,2.6-3,2.5-5.7c0-1.6-0.8-3.5-2.5-5.1c-1.7-1.7-3.7-2.3-5.3-2.2c-2.7,0-4.2,1.4-5.5,2.8l-20.8,21.9
			c-1.4,1.5-2.6,3-2.6,5.7c0.1,1.5,0.8,3.4,2.6,5.1c1.7,1.7,3.7,2.3,5.2,2.3c2.7-0.1,4.2-1.4,5.6-2.9L640,199.6z"/>
		<path class="st10" d="M669.2,212.8l-34,26.5c-3.7,2.9-4.8,6.6-2.1,10.1c2.7,3.5,6.7,3.3,10.3,0.5l34-26.5l3.7,4.7l-33,25.7
			c-9.4,7.3-16.1,3.7-19.6-0.8c-3.5-4.5-5.4-11.9,4-19.2l33-25.7L669.2,212.8z"/>
		<path class="st10" d="M694.6,248.9l-28.4,34.4l36.2-20.6l3,5.2l-48.7,27.6l-3-5.2l27.7-34l-35.6,20.2l-3-5.2l48.7-27.6
			L694.6,248.9z"/>
		<path class="st10" d="M717.3,294.8c1.1,2.8,2.4,7.2,0.2,11.7c-2,4-5.6,5.9-9.2,7.3l-23.5,9.4c-3.6,1.4-7.4,2.5-11.6,1
			c-4.7-1.8-6.8-5.8-7.9-8.6l-4.2-10.4l52-20.8L717.3,294.8z M683.1,317.4l22.6-9c1.9-0.8,5-2.1,6.3-4.9c1.2-2.6,0.5-4.9-0.2-6.8
			l-1.8-4.5l-41.2,16.5l1.8,4.5c0.7,1.9,1.9,4.1,4.5,5.1C678,319.4,681.2,318.2,683.1,317.4z"/>
		<path class="st10" d="M724.4,368.1c1.4-0.3,4-0.9,5.6-2.8c0.9-1.2,1.8-2.9,1.2-5.7c-0.3-1.4-1-3.2-2.7-4.4c-2.3-1.5-5-1.1-7.1-0.7
			c-1.6,0.3-4.5,1-6.3,2.7c-1.4,1.4-1.9,3.5-2.1,4.9l-0.8,5.4c-0.3,2.4-1.1,5.6-3.3,7.9c-2.3,2.5-5.2,3.3-8.7,4l-2,0.4
			c-5.4,1.1-9.7,0.4-12.5-1.3c-2.4-1.6-4.5-4.7-5.4-9.1c-1.1-5.4,0.2-9.3,2.2-11.4c2.7-3,7.9-4,8.6-4.1l2-0.4l1.2,5.9l-1.6,0.3
			c-1.5,0.3-4,1-5.5,2.7c-1.7,2.1-1.5,4.5-1.2,5.9c0.7,3.6,2.4,4.9,3.6,5.6c2.2,1.1,4.8,0.7,6.7,0.3l2.1-0.4
			c2.1-0.4,4.8-1.2,6.2-2.8c1.5-1.7,2-4.1,2.1-5.1l1-6.4c0.4-2.9,1.4-5.8,4.6-8c2.2-1.5,4.9-2.1,7.6-2.6l1.6-0.3
			c4.4-0.9,8,0.1,10.6,2c2.8,2,4.2,5,4.9,8.4c1.5,7.5-2.4,13.5-11.2,15.2l-1.9,0.4l-1.2-5.9L724.4,368.1z"/>
		<path class="st10" d="M742.6,407.3l-5.5,0.5l-1-10.4l-50.3,4.7l-0.6-6l50.3-4.7l-1-10.3l5.5-0.5L742.6,407.3z"/>
		<path class="st10" d="M686.9,437.2l12.5-2.8l0-12.6l-12.5-2.7l0-5.8l56,12.2l0,5.4l-56,12.2L686.9,437.2z M730.9,428l-26.4-5.4
			l0,11L730.9,428z"/>
		<path class="st10" d="M739.9,475.8l-5.5-0.5l1-10.3l-50.2-4.9l0.6-6L736,459l1-10.3l5.5,0.5L739.9,475.8z"/>
		<path class="st10" d="M736.6,494.5l-55.1-10.2l1.1-5.9l55.1,10.2L736.6,494.5z"/>
		<path class="st10" d="M719.6,506.9c4,1.2,7.7,2.6,10,7.1c1.4,2.8,1.7,6.2,0.6,10c-1.1,3.8-3.2,6.6-5.9,8.1
			c-4.3,2.6-8.3,1.8-12.3,0.6l-26.6-7.7c-4-1.2-7.7-2.6-10-7.1c-1.4-2.8-1.7-6.2-0.6-10c1.1-3.8,3.2-6.6,5.9-8.1
			c4.3-2.6,8.3-1.8,12.3-0.6L719.6,506.9z M715,527.3c1.9,0.6,3.9,1,6.2-0.4c1.4-0.8,2.7-2.3,3.4-4.6c0.7-2.3,0.3-4.3-0.4-5.7
			c-1.2-2.4-3.1-3.1-5-3.6l-29-8.4c-1.9-0.6-3.9-1-6.3,0.3c-1.3,0.8-2.7,2.3-3.3,4.6c-0.7,2.3-0.3,4.3,0.3,5.7
			c1.3,2.4,3.2,3.1,5.1,3.6L715,527.3z"/>
		<path class="st10" d="M716.9,559.4l-44.5-3l37.9,17.4l-2.5,5.5l-50.9-23.4l2.5-5.5l43.8,2.7L666,536l2.5-5.5l50.9,23.4
			L716.9,559.4z"/>
	</g>
</g>
</svg>
